<svg width="1512" height="982" viewBox="0 0 1512 982" fill="none" xmlns="http://www.w3.org/2000/svg">
<mask id="mask0_525_8850" style="mask-type:alpha" maskUnits="userSpaceOnUse" x="0" y="0" width="1512" height="982">
<rect width="1512" height="982" fill="#F6F6FA"/>
</mask>
<g mask="url(#mask0_525_8850)">
<g opacity="0.1">
<path d="M753.121 1116.74V1055.11L694.965 1021.55V1087.53L640.8 1118.8V1053.98L583.641 1086.95L528.479 1055.13V994.66C530.155 994.221 531.393 992.704 531.393 990.889C531.393 990.53 531.333 990.19 531.233 989.871L584.12 959.346L584.619 959.066V891.95L527.481 924.929L471.32 892.508L415.16 924.909L359.997 893.067V829.402L417.156 796.422L359.997 763.443V697.463L302.34 730.742L301.841 731.022V794.687L250.45 765.019C250.53 764.7 250.61 764.36 250.61 764.001C250.61 762.186 249.373 760.669 247.696 760.23V634.936L303.358 602.814L303.857 602.534V535.418L246.199 568.697L245.701 568.976V633.798L190.538 665.641L136.373 634.377L191.037 602.834L191.536 602.554V535.438L133.879 568.717L133.38 568.996L133.38 697.483L81.9889 667.816C82.0688 667.496 82.1486 667.157 82.1486 666.798C82.1486 664.982 80.9112 663.466 79.2348 663.027V601.397L24.0722 569.555L78.2369 538.291L79.2348 538.869V537.712L80.2327 537.134L79.2348 536.555V471.733L25.8484 440.928C25.9282 440.609 26.0081 440.27 26.0081 439.91C26.0081 437.756 24.2518 436 22.0964 436C19.941 436 18.1847 437.756 18.1847 439.91C18.1847 441.726 19.4221 443.242 21.0985 443.681L21.0985 504.154L-36 537.154L20.1605 569.555L-34.5032 601.098L-35.0021 601.377L-35.0021 666.199L-36 666.778L-35.0021 667.357V732.179L20.1206 764.001L-34.5631 795.564L-35.062 795.844V862.96L22.5953 829.681L23.0943 829.402V765.717H23.1342L23.1342 699.778L75.5027 669.551C75.9817 670.03 76.6004 670.389 77.279 670.569V732.199L132.442 764.021L77.7779 795.564L77.279 795.844L77.279 860.686L24.9503 890.892C24.2318 890.174 23.2539 889.735 22.1762 889.735C20.0208 889.735 18.2645 891.491 18.2645 893.646C18.2645 895.461 19.5019 896.977 21.1783 897.416L21.1783 1022.63L-34.5631 1054.81L-35.062 1055.09V1122.21L-34.9822 1122.15L-34.9822 1185.87L21.1783 1218.28V1219.43L22.1762 1218.85L23.1741 1219.43V1218.28L78.8356 1186.15L79.3346 1185.87V1118.76L24.9703 1150.14C24.2518 1149.42 23.2739 1148.98 22.1962 1148.98C21.1185 1148.98 20.1206 1149.42 19.4221 1150.14L-32.0085 1120.45L21.1983 1089.75V1089.81L78.3567 1056.83L135.515 1089.81V1023.81L191.117 991.707L191.616 991.427V929.798C193.292 929.359 194.529 927.842 194.529 926.027C194.529 923.872 192.773 922.116 190.618 922.116C188.462 922.116 186.706 923.872 186.706 926.027C186.706 926.386 186.766 926.725 186.866 927.044L133.978 957.57L133.479 957.849V1021.49L79.3745 990.27V861.763L134.477 829.961L191.636 862.94V796.981L244.004 766.755C244.483 767.233 245.102 767.592 245.78 767.772V829.402L299.167 860.207C299.087 860.526 299.007 860.865 299.007 861.225C299.007 861.584 299.067 861.923 299.167 862.242L246.279 892.768L245.78 893.047L245.78 1022.61L193.731 1052.66C193.013 1051.66 191.855 1051 190.538 1051C188.383 1051 186.626 1052.76 186.626 1054.91C186.626 1056.73 187.864 1058.24 189.54 1058.68V1122.19L245.701 1089.79V1153.45L303.857 1187.01V1119.89L248.754 1088.09L302.939 1056.81L355.327 1087.03C355.247 1087.35 355.168 1087.69 355.168 1088.05C355.168 1090.21 356.924 1091.96 359.079 1091.96C361.235 1091.96 362.991 1090.21 362.991 1088.05C362.991 1086.24 361.754 1084.72 360.077 1084.28V959.006L415.24 927.164L469.405 958.428L414.741 989.971L414.242 990.25V1055.07L413.244 1055.65L414.242 1056.23V1119.89L358.58 1152.02L358.081 1152.3V1219.41L415.739 1186.13L416.238 1185.85V1122.19L470.402 1153.45V1154.61L471.4 1154.03L528.559 1187.01V1124.24C529.237 1124.06 529.856 1123.71 530.335 1123.23L582.703 1153.45V1219.41L638.864 1187.01L696.521 1153.75L697.02 1153.47V1089.81L748.411 1119.48C748.331 1119.79 748.251 1120.13 748.251 1120.49C748.251 1122.65 750.008 1124.4 752.163 1124.4C754.318 1124.4 756.075 1122.65 756.075 1120.49C756.075 1118.68 754.837 1117.16 753.161 1116.72L753.121 1116.74ZM135.455 570.133L189.62 538.869V601.377L135.455 632.641V570.133ZM21.1185 828.265L-33.0463 859.529V797.021L21.1185 765.757V828.265ZM77.3588 1122.23V1184.74L23.194 1216V1156.68C24.8705 1156.25 26.1078 1154.73 26.1078 1152.91C26.1078 1152.56 26.048 1152.22 25.9482 1151.9L77.3388 1122.23H77.3588ZM21.1983 1156.68V1216L-32.9665 1184.74L-32.9665 1122.23L18.4242 1151.9C18.3444 1152.22 18.2645 1152.56 18.2645 1152.91C18.2645 1154.73 19.5019 1156.25 21.1783 1156.68H21.1983ZM638.824 1119.93L584.659 1151.2V1088.69L638.824 1057.43V1119.91V1119.93ZM526.523 1116.76C525.844 1116.94 525.226 1117.28 524.747 1117.78L473.376 1088.13L526.543 1057.45V1116.76H526.523ZM472.358 1022.73V960.223L523.749 989.891C523.669 990.21 523.589 990.55 523.589 990.909C523.589 992.724 524.827 994.241 526.503 994.68V1054L472.338 1022.73H472.358ZM526.523 987.118C525.844 987.297 525.226 987.657 524.747 988.135L473.376 958.488L526.543 927.802V987.118H526.523ZM471.36 1024.45L525.525 1055.71L500.917 1069.92L471.36 1086.97L417.196 1055.71L441.803 1041.51L471.36 1024.45ZM472.358 1089.85L523.749 1119.52C523.669 1119.83 523.589 1120.17 523.589 1120.53C523.589 1120.89 523.649 1121.23 523.749 1121.55L472.358 1151.22V1089.85ZM582.664 957.909L530.295 988.135C529.816 987.657 529.197 987.297 528.519 987.118V926.645L582.684 895.381V957.889L582.664 957.909ZM303.897 857.494V798.178L358.061 829.442V891.95L306.671 862.282C306.751 861.963 306.831 861.624 306.831 861.264C306.831 859.449 305.593 857.933 303.917 857.494H303.897ZM303.897 865.035C304.575 864.856 305.194 864.497 305.673 864.018L357.044 893.666L303.897 924.351V865.035ZM359.059 827.706L304.895 796.442L331.458 781.12L359.059 765.198L413.224 796.462L359.059 827.726V827.706ZM303.897 732.199L358.061 700.935V763.443L303.897 794.707V732.199ZM247.736 570.153L301.901 538.889V601.397L247.736 632.661V570.153ZM245.74 698.64L228.018 708.875L191.576 729.904L191.576 667.397L245.74 636.133V698.64ZM189.58 794.707L162.498 779.085L135.415 763.463V700.955L162.498 716.577L189.58 732.199V794.707ZM135.415 636.133L189.58 667.397L189.58 729.904L162.498 714.282L135.415 698.66L135.415 636.153V636.133ZM77.259 663.047C76.5804 663.227 75.9618 663.566 75.4828 664.065L23.1142 633.838L23.1142 571.33L77.279 602.594V663.067L77.259 663.047ZM77.259 472.93V535.438L23.0943 504.174L23.0943 443.701C23.7728 443.522 24.3915 443.183 24.8705 442.684L77.239 472.91L77.259 472.93ZM22.0964 505.91L76.2611 537.174L23.0943 567.859L22.0964 568.438L21.0985 567.859L-32.0684 537.174L22.0964 505.91ZM-33.0064 602.554L21.1584 571.291L21.1584 633.798L-33.0064 665.062L-33.0064 602.554ZM-33.0064 668.534L21.1584 699.798L21.1584 762.305L-33.0064 731.042V668.534ZM22.1562 698.062L-32.0085 666.798L-7.40086 652.593L22.1562 635.534L74.5448 665.76C74.4649 666.08 74.3851 666.419 74.3851 666.778C74.3851 667.137 74.445 667.476 74.5448 667.796L22.1562 698.042V698.062ZM79.3146 670.569C79.9932 670.389 80.6119 670.05 81.0908 669.551L133.459 699.778V762.285L79.2947 731.022V670.549L79.3146 670.569ZM79.3146 797.001L133.479 765.737V828.245L79.3146 859.509L79.3146 797.001ZM23.214 897.416C24.8904 896.977 26.1278 895.461 26.1278 893.646C26.1278 893.286 26.0679 892.947 25.9681 892.628L77.3588 862.96V925.468L23.194 956.732V897.416H23.214ZM77.3787 990.29L23.214 1021.55L23.214 959.046L77.3787 927.782V990.29ZM21.1384 1087.49L-33.0263 1118.76V1056.25L21.1384 1024.99V1087.49ZM23.214 1023.85L77.3787 992.585V1055.09L23.214 1086.36V1023.85ZM135.475 959.026L187.844 928.8C188.323 929.279 188.941 929.638 189.62 929.817V990.29L135.455 1021.55V959.046L135.475 959.026ZM133.519 1024.97V1086.36L79.3545 1055.09V992.585L133.459 1023.81V1024.99H133.499L133.519 1024.97ZM189.62 859.489L135.455 828.225V765.717L162.538 781.339L189.62 796.961V859.469V859.489ZM191.616 794.667V732.159L222.57 714.302L245.78 700.915V760.23C244.104 760.669 242.867 762.186 242.867 764.001C242.867 764.36 242.926 764.7 243.026 765.019L191.636 794.687L191.616 794.667ZM247.776 828.225V767.752C248.455 767.573 249.073 767.233 249.552 766.735L301.921 796.961V857.434C301.242 857.613 300.624 857.952 300.145 858.451L247.776 828.225ZM247.776 894.204L300.145 863.978C300.624 864.457 301.242 864.816 301.921 864.995V925.468L300.923 926.047L247.756 956.732L247.756 894.224L247.776 894.204ZM247.776 1023.83L301.941 992.565V1055.07L247.776 1086.34V1023.83ZM301.941 990.27L247.776 1021.53V959.026L301.941 927.763L301.941 990.27ZM191.536 1118.74V1058.7C193.212 1058.26 194.45 1056.75 194.45 1054.93C194.45 1054.81 194.43 1054.69 194.41 1054.57L245.681 1024.99V1087.49L191.516 1118.76L191.536 1118.74ZM301.841 1183.56L247.676 1152.3V1089.79L301.841 1121.05V1183.56ZM358.081 1084.3C357.403 1084.48 356.784 1084.82 356.305 1085.32L303.937 1055.09V992.585L358.101 1023.85V1084.3H358.081ZM303.917 990.27L303.917 927.763L358.081 959.026V1021.53L303.917 990.27ZM359.079 957.291L304.915 926.027L359.059 894.763L360.057 895.341L413.224 926.027L359.059 957.291H359.079ZM471.38 894.783L525.545 926.047L472.378 956.732L471.38 957.311L470.382 956.732L417.216 926.047L471.38 894.783ZM416.218 991.447L470.382 960.184V1022.69L416.218 1053.96V991.447ZM414.222 1184.76L360.057 1216.02V1153.51L414.222 1122.25V1184.76ZM416.218 1119.93V1057.43L470.382 1088.69V1151.2L416.218 1119.93ZM473.376 1152.91L524.747 1123.27C525.226 1123.75 525.844 1124.1 526.523 1124.28V1183.6L473.356 1152.91H473.376ZM528.539 1116.72V1057.41L582.703 1088.67V1151.18L531.313 1121.51C531.393 1121.19 531.472 1120.85 531.472 1120.49C531.472 1118.68 530.235 1117.16 528.559 1116.72H528.539ZM584.699 1215.98V1153.49L638.864 1122.23V1184.74L584.699 1216V1215.98ZM695.005 1152.34L640.84 1183.6V1121.09L695.005 1089.83V1152.34ZM697 1087.51V1025.01L751.165 1056.27V1116.74C750.486 1116.92 749.868 1117.26 749.389 1117.76L697.02 1087.53L697 1087.51Z" fill="#25286F"/>
</g>
<g opacity="0.1">
<path d="M967.954 -28.3101L967.954 33.3198L1026.11 66.8781L1026.11 0.898801L1080.27 -30.365L1080.27 34.4572L1137.43 1.4773L1192.6 33.2998L1192.6 93.7727C1190.92 94.2116 1189.68 95.7279 1189.68 97.5435C1189.68 97.9026 1189.74 98.2418 1189.84 98.561L1136.95 129.087L1136.46 129.366L1136.46 196.483L1193.59 163.503L1249.75 195.924L1305.91 163.523L1361.08 195.365L1361.08 259.03L1303.92 292.01L1361.08 324.99L1361.08 390.969L1418.73 357.69L1419.23 357.411L1419.23 293.746L1470.62 323.413C1470.54 323.733 1470.46 324.072 1470.46 324.431C1470.46 326.247 1471.7 327.763 1473.38 328.202L1473.38 453.497L1417.72 485.618L1417.22 485.898L1417.22 553.014L1474.88 519.735L1475.37 519.456L1475.37 454.634L1530.54 422.791L1584.7 454.055L1530.04 485.599L1529.54 485.878L1529.54 552.994L1587.2 519.715L1587.7 519.436L1587.7 390.949L1639.09 420.617C1639.01 420.936 1638.93 421.275 1638.93 421.634C1638.93 423.45 1640.16 424.966 1641.84 425.405L1641.84 487.035L1697 518.877L1642.84 550.141L1641.84 549.563L1641.84 550.72L1640.84 551.299L1641.84 551.877L1641.84 616.699L1695.23 647.504C1695.15 647.823 1695.07 648.163 1695.07 648.522C1695.07 650.677 1696.82 652.432 1698.98 652.432C1701.13 652.432 1702.89 650.677 1702.89 648.522C1702.89 646.706 1701.65 645.19 1699.98 644.751L1699.98 584.278L1757.07 551.279L1700.91 518.877L1755.58 487.334L1756.08 487.055L1756.08 422.233L1757.07 421.654L1756.08 421.076L1756.08 356.253L1700.95 324.431L1755.64 292.868L1756.14 292.589L1756.14 225.472L1698.48 258.751L1697.98 259.03L1697.98 322.715L1697.94 322.715L1697.94 388.655L1645.57 418.881C1645.09 418.402 1644.47 418.043 1643.8 417.863L1643.8 356.234L1588.63 324.411L1643.3 292.868L1643.8 292.589L1643.8 227.746L1696.12 197.54C1696.84 198.258 1697.82 198.697 1698.9 198.697C1701.05 198.697 1702.81 196.941 1702.81 194.787C1702.81 192.971 1701.57 191.455 1699.9 191.016L1699.9 65.8008L1755.64 33.6193L1756.14 33.3399L1756.14 -33.7767L1756.06 -33.7168L1756.06 -97.4417L1699.9 -129.843L1699.9 -131L1698.9 -130.421L1697.9 -131L1697.9 -129.843L1642.24 -97.721L1641.74 -97.4417L1641.74 -30.3251L1696.1 -61.7087C1696.82 -60.9905 1697.8 -60.5515 1698.88 -60.5515C1699.96 -60.5515 1700.95 -60.9905 1701.65 -61.7087L1753.08 -32.021L1699.88 -1.3158L1699.88 -1.37562L1642.72 31.6041L1585.56 -1.37563L1585.56 64.6236L1529.96 96.7254L1529.46 97.0047L1529.46 158.635C1527.78 159.074 1526.55 160.59 1526.55 162.406C1526.55 164.56 1528.3 166.316 1530.46 166.316C1532.61 166.316 1534.37 164.56 1534.37 162.406C1534.37 162.046 1534.31 161.707 1534.21 161.388L1587.1 130.862L1587.6 130.583L1587.6 66.938L1641.7 98.162L1641.7 226.669L1586.6 258.472L1529.44 225.492L1529.44 291.451L1477.07 321.678C1476.59 321.199 1475.97 320.84 1475.29 320.66L1475.29 259.03L1421.91 228.225C1421.99 227.906 1422.07 227.567 1422.07 227.208C1422.07 226.849 1422.01 226.509 1421.91 226.19L1474.8 195.665L1475.29 195.385L1475.29 65.8207L1527.34 35.7738C1528.06 36.7714 1529.22 37.4298 1530.54 37.4298C1532.69 37.4298 1534.45 35.6741 1534.45 33.5194C1534.45 31.7038 1533.21 30.1875 1531.53 29.7486L1531.53 -33.7567L1475.37 -1.35574L1475.37 -65.0207L1417.22 -98.5789L1417.22 -31.4624L1472.32 0.340124L1418.14 31.6241L1365.75 1.39761C1365.83 1.0784 1365.91 0.739163 1365.91 0.380032C1365.91 -1.77469 1364.15 -3.53049 1362 -3.53049C1359.84 -3.53049 1358.08 -1.77469 1358.08 0.380031C1358.08 2.19564 1359.32 3.712 1361 4.15097L1361 129.426L1305.83 161.268L1251.67 130.004L1306.33 98.4612L1306.83 98.182L1306.83 33.3598L1307.83 32.7811L1306.83 32.2025L1306.83 -31.4624L1362.49 -63.5842L1362.99 -63.8636L1362.99 -130.98L1305.34 -97.701L1304.84 -97.4218L1304.84 -33.7568L1250.67 -65.0207L1250.67 -66.1779L1249.67 -65.5993L1192.52 -98.5789L1192.52 -35.8118C1191.84 -35.6323 1191.22 -35.2731 1190.74 -34.7943L1138.37 -65.0207L1138.37 -130.98L1082.21 -98.5789L1024.55 -65.3199L1024.05 -65.0406L1024.05 -1.37567L972.664 -31.0435C972.744 -31.3627 972.824 -31.7019 972.824 -32.061C972.824 -34.2158 971.067 -35.9714 968.912 -35.9714C966.756 -35.9714 965 -34.2158 965 -32.061C965 -30.2454 966.238 -28.7291 967.914 -28.2901L967.954 -28.3101ZM1585.62 518.299L1531.45 549.563L1531.45 487.055L1585.62 455.791L1585.62 518.299ZM1699.96 260.168L1754.12 228.904L1754.12 291.411L1699.96 322.675L1699.96 260.168ZM1643.72 -33.7968L1643.72 -96.3045L1697.88 -127.568L1697.88 -68.2527C1696.2 -67.8138 1694.97 -66.2976 1694.97 -64.4819C1694.97 -64.1228 1695.03 -63.7836 1695.13 -63.4644L1643.74 -33.7968L1643.72 -33.7968ZM1699.88 -68.2527L1699.88 -127.568L1754.04 -96.3044L1754.04 -33.7968L1702.65 -63.4644C1702.73 -63.7836 1702.81 -64.1228 1702.81 -64.4819C1702.81 -66.2976 1701.57 -67.8138 1699.9 -68.2527L1699.88 -68.2527ZM1082.25 -31.5023L1136.42 -62.7661L1136.42 -0.258416L1082.25 31.0056L1082.25 -31.4823L1082.25 -31.5023ZM1194.55 -28.33C1195.23 -28.5096 1195.85 -28.8487 1196.33 -29.3475L1247.7 0.300309L1194.53 30.9855L1194.53 -28.33L1194.55 -28.33ZM1248.72 65.7011L1248.72 128.209L1197.33 98.541C1197.41 98.2218 1197.49 97.8826 1197.49 97.5235C1197.49 95.7079 1196.25 94.1916 1194.57 93.7527L1194.57 34.4371L1248.74 65.7011L1248.72 65.7011ZM1194.55 101.314C1195.23 101.135 1195.85 100.776 1196.33 100.297L1247.7 129.945L1194.53 160.63L1194.53 101.314L1194.55 101.314ZM1249.71 63.9851L1195.55 32.7213L1220.16 18.5159L1249.71 1.45741L1303.88 32.7213L1279.27 46.9268L1249.71 63.9851ZM1248.72 -1.41545L1197.33 -31.0834C1197.41 -31.4026 1197.49 -31.7417 1197.49 -32.1008C1197.49 -32.4599 1197.43 -32.7991 1197.33 -33.1183L1248.72 -62.7861L1248.72 -1.41545ZM1138.41 130.523L1190.78 100.297C1191.26 100.776 1191.88 101.135 1192.56 101.314L1192.56 161.787L1138.39 193.051L1138.39 130.543L1138.41 130.523ZM1417.18 230.939L1417.18 290.254L1363.01 258.99L1363.01 196.483L1414.4 226.15C1414.32 226.47 1414.24 226.809 1414.24 227.168C1414.24 228.983 1415.48 230.5 1417.16 230.939L1417.18 230.939ZM1417.18 223.397C1416.5 223.577 1415.88 223.936 1415.4 224.415L1364.03 194.767L1417.18 164.081L1417.18 223.397ZM1362.02 260.726L1416.18 291.99L1389.62 307.313L1362.02 323.234L1307.85 291.97L1362.02 260.706L1362.02 260.726ZM1417.18 356.234L1363.01 387.497L1363.01 324.99L1417.18 293.726L1417.18 356.234ZM1473.34 518.279L1419.17 549.543L1419.17 487.035L1473.34 455.771L1473.34 518.279ZM1475.33 389.792L1493.06 379.557L1529.5 358.528L1529.5 421.036L1475.33 452.3L1475.33 389.792ZM1531.49 293.726L1558.58 309.348L1585.66 324.97L1585.66 387.477L1558.58 371.855L1531.49 356.234L1531.49 293.726ZM1585.66 452.3L1531.49 421.036L1531.49 358.528L1558.58 374.15L1585.66 389.772L1585.66 452.28L1585.66 452.3ZM1643.82 425.385C1644.49 425.206 1645.11 424.866 1645.59 424.368L1697.96 454.594L1697.96 517.102L1643.8 485.838L1643.8 425.365L1643.82 425.385ZM1643.82 615.502L1643.82 552.994L1697.98 584.258L1697.98 644.731C1697.3 644.911 1696.68 645.25 1696.2 645.749L1643.84 615.522L1643.82 615.502ZM1698.98 582.522L1644.81 551.259L1697.98 520.573L1698.98 519.995L1699.98 520.573L1753.14 551.259L1698.98 582.522ZM1754.08 485.878L1699.92 517.142L1699.92 454.634L1754.08 423.37L1754.08 485.878ZM1754.08 419.899L1699.92 388.635L1699.92 326.127L1754.08 357.391L1754.08 419.899ZM1698.92 390.37L1753.08 421.634L1728.48 435.84L1698.92 452.898L1646.53 422.672C1646.61 422.353 1646.69 422.013 1646.69 421.654C1646.69 421.295 1646.63 420.956 1646.53 420.637L1698.92 390.39L1698.92 390.37ZM1641.76 417.863C1641.08 418.043 1640.46 418.382 1639.98 418.881L1587.62 388.655L1587.62 326.147L1641.78 357.411L1641.78 417.883L1641.76 417.863ZM1641.76 291.431L1587.6 322.695L1587.6 260.187L1641.76 228.924L1641.76 291.431ZM1697.86 191.016C1696.18 191.455 1694.95 192.971 1694.95 194.787C1694.95 195.146 1695.01 195.485 1695.11 195.804L1643.72 225.472L1643.72 162.964L1697.88 131.7L1697.88 191.016L1697.86 191.016ZM1643.7 98.142L1697.86 66.8782L1697.86 129.386L1643.7 160.65L1643.7 98.142ZM1699.94 0.938777L1754.1 -30.3251L1754.1 32.1827L1699.94 63.4465L1699.94 0.938777ZM1697.86 64.5837L1643.7 95.8476L1643.7 33.3399L1697.86 2.07598L1697.86 64.5837ZM1585.6 129.406L1533.23 159.632C1532.75 159.153 1532.13 158.794 1531.45 158.615L1531.45 98.142L1585.62 66.8782L1585.62 129.386L1585.6 129.406ZM1587.56 63.4664L1587.56 2.07597L1641.72 33.3399L1641.72 95.8476L1587.62 64.6236L1587.62 63.4465L1587.58 63.4465L1587.56 63.4664ZM1531.45 228.943L1585.62 260.207L1585.62 322.715L1558.54 307.093L1531.45 291.471L1531.45 228.963L1531.45 228.943ZM1529.46 293.766L1529.46 356.273L1498.5 374.13L1475.29 387.517L1475.29 328.202C1476.97 327.763 1478.21 326.247 1478.21 324.431C1478.21 324.072 1478.15 323.733 1478.05 323.413L1529.44 293.746L1529.46 293.766ZM1473.3 260.207L1473.3 320.68C1472.62 320.86 1472 321.199 1471.52 321.698L1419.15 291.471L1419.15 230.998C1419.83 230.819 1420.45 230.48 1420.93 229.981L1473.3 260.207ZM1473.3 194.228L1420.93 224.454C1420.45 223.976 1419.83 223.616 1419.15 223.437L1419.15 162.964L1420.15 162.386L1473.32 131.7L1473.32 194.208L1473.3 194.228ZM1473.3 64.6037L1419.13 95.8675L1419.13 33.3598L1473.3 2.09586L1473.3 64.6037ZM1419.13 98.162L1473.3 66.8981L1473.3 129.406L1419.13 160.67L1419.13 98.162ZM1529.54 -30.3053L1529.54 29.7286C1527.86 30.1675 1526.63 31.6839 1526.63 33.4995C1526.63 33.6192 1526.65 33.7388 1526.67 33.8586L1475.39 63.4465L1475.39 0.938757L1529.56 -30.3252L1529.54 -30.3053ZM1419.23 -95.1273L1473.4 -63.8636L1473.4 -1.35574L1419.23 -32.6195L1419.23 -95.1273ZM1362.99 4.13095C1363.67 3.95138 1364.29 3.61215 1364.77 3.11337L1417.14 33.3399L1417.14 95.8476L1362.97 64.5836L1362.97 4.13095L1362.99 4.13095ZM1417.16 98.162L1417.16 160.67L1362.99 129.406L1362.99 66.8981L1417.16 98.162ZM1362 131.142L1416.16 162.406L1362.02 193.669L1361.02 193.091L1307.85 162.406L1362.02 131.142L1362 131.142ZM1249.69 193.649L1195.53 162.386L1248.7 131.7L1249.69 131.122L1250.69 131.7L1303.86 162.386L1249.69 193.649ZM1304.86 96.9848L1250.69 128.249L1250.69 65.7409L1304.86 34.4771L1304.86 96.9848ZM1306.85 -96.3244L1361.02 -127.588L1361.02 -65.0805L1306.85 -33.8167L1306.85 -96.3244ZM1304.86 -31.5023L1304.86 31.0056L1250.69 -0.258406L1250.69 -62.7661L1304.86 -31.5023ZM1247.7 -64.482L1196.33 -34.8341C1195.85 -35.313 1195.23 -35.6721 1194.55 -35.8517L1194.55 -95.1673L1247.72 -64.482L1247.7 -64.482ZM1192.54 -28.2901L1192.54 31.0253L1138.37 -0.238457L1138.37 -62.7463L1189.76 -33.0785C1189.68 -32.7593 1189.6 -32.4201 1189.6 -32.061C1189.6 -30.2454 1190.84 -28.7291 1192.52 -28.2901L1192.54 -28.2901ZM1136.38 -127.548L1136.38 -65.0606L1082.21 -33.7968L1082.21 -96.3045L1136.38 -127.568L1136.38 -127.548ZM1026.07 -63.9034L1080.23 -95.1674L1080.23 -32.6595L1026.07 -1.39569L1026.07 -63.9034ZM1024.07 0.918698L1024.07 63.4265L969.91 32.1626L969.91 -28.3101C970.588 -28.4897 971.207 -28.8289 971.686 -29.3277L1024.05 0.898801L1024.07 0.918698Z" fill="#25286F"/>
</g>
</g>
</svg>
